<?xml version="1.0" encoding="UTF-8"?>
<svg width="100" height="120" viewBox="0 0 100 120" xmlns="http://www.w3.org/2000/svg">
  <!-- 身体雪球 -->
  <circle cx="50" cy="75" r="35" fill="#ffffff" filter="url(#shadow)"/>
  <!-- 头部雪球 -->
  <circle cx="50" cy="25" r="20" fill="#ffffff" filter="url(#shadow)"/>
  <!-- 眼睛 -->
  <circle cx="45" cy="20" r="2" fill="#000000"/>
  <circle cx="55" cy="20" r="2" fill="#000000"/>
  <!-- 胡萝卜鼻子 -->
  <path d="M50 23 L50 28" stroke="#ff6f00" stroke-width="4" stroke-linecap="round"/>
  <!-- 围巾 -->
  <path d="M30 40 Q50 45 70 40" stroke="#f44336" stroke-width="4" fill="none"/>
  <!-- 按钮 -->
  <circle cx="50" cy="60" r="2" fill="#424242"/>
  <circle cx="50" cy="75" r="2" fill="#424242"/>
  <!-- 左手臂 -->
  <path d="M25 50 L15 40" stroke="#795548" stroke-width="2"/>
  <!-- 右手臂（断掉） -->
  <path d="M75 50 L76 50" stroke="#795548" stroke-width="2"/>
  <!-- 污渍 -->
  <circle cx="65" cy="85" r="5" fill="#e0e0e0" opacity="0.6"/>
  <circle cx="40" cy="30" r="3" fill="#e0e0e0" opacity="0.6"/>
  <circle cx="30" cy="70" r="4" fill="#e0e0e0" opacity="0.6"/>
  <!-- 裂纹 -->
  <path d="M35 75 L65 75" stroke="#ccc" stroke-width="1"/>
  <path d="M45 25 L55 25" stroke="#ccc" stroke-width="1"/>
  <path d="M50 60 L50 90" stroke="#ccc" stroke-width="1"/>
  <!-- 阴影和光效 -->
  <defs>
    <filter id="shadow" x="-20%" y="-20%" width="140%" height="140%">
      <feGaussianBlur in="SourceAlpha" stdDeviation="2"/>
      <feOffset dx="2" dy="2"/>
      <feComponentTransfer>
        <feFuncA type="linear" slope="0.2"/>
      </feComponentTransfer>
      <feMerge>
        <feMergeNode/>
        <feMergeNode in="SourceGraphic"/>
      </feMerge>
    </filter>
  </defs>
</svg>